<?xml version="1.0" standalone="no"?><!DOCTYPE svg PUBLIC "-//W3C//DTD SVG 1.1//EN" "http://www.w3.org/Graphics/SVG/1.1/DTD/svg11.dtd"><svg t="1714286340361" class="icon" viewBox="0 0 1024 1024" version="1.1" xmlns="http://www.w3.org/2000/svg" p-id="5172" xmlns:xlink="http://www.w3.org/1999/xlink" width="200" height="200"><path d="M191.920566 191.657065l63.853283 0 0 638.536928-63.853283 0 0-638.536928Z" p-id="5173"></path><path d="M702.749904 127.803781l0 127.70759-63.853283 0L638.89662 127.803781 128.066259 127.803781l0 766.244518 510.829338 0L638.895597 766.340709l63.853283 0 0 127.70759c0 35.262108-28.560476 63.853283-63.853283 63.853283L128.066259 957.901583c-35.231409 0-63.853283-28.591175-63.853283-63.853283L64.212976 127.803781c0-35.262108 28.622898-63.853283 63.853283-63.853283l510.829338 0C674.189428 63.949474 702.749904 92.541673 702.749904 127.803781z" p-id="5174"></path><path d="M383.48144 383.217938 383.48144 319.364655 766.60421 319.364655 766.60421 191.657065 830.457494 191.657065 830.457494 255.511371 894.310777 255.511371 894.310777 319.364655 958.165084 319.364655 958.165084 383.217938 894.310777 383.217938 894.310777 447.072245 830.457494 447.072245 830.457494 510.925528 766.60421 510.925528 766.60421 383.217938Z" p-id="5175"></path><path d="M511.18903 830.193992 511.18903 766.340709 447.334723 766.340709 447.334723 702.487426 383.48144 702.487426 383.48144 638.633119 447.334723 638.633119 447.334723 574.779835 511.18903 574.779835 511.18903 510.925528 575.042313 510.925528 575.042313 638.633119 958.165084 638.633119 958.165084 702.487426 575.042313 702.487426 575.042313 830.193992Z" p-id="5176"></path></svg>