<?xml version="1.0" standalone="no"?><!DOCTYPE svg PUBLIC "-//W3C//DTD SVG 1.1//EN" "http://www.w3.org/Graphics/SVG/1.1/DTD/svg11.dtd"><svg t="1712455516732" class="icon" viewBox="0 0 1024 1024" version="1.1" xmlns="http://www.w3.org/2000/svg" p-id="9024" xmlns:xlink="http://www.w3.org/1999/xlink" width="200" height="200"><path d="M744.727273 1024H93.090909c-51.2 0-93.090909-41.890909-93.090909-93.090909V279.272727c0-27.927273 18.618182-46.545455 46.545455-46.545454s46.545455 18.618182 46.545454 46.545454v651.636364h651.636364c27.927273 0 46.545455 18.618182 46.545454 46.545454s-18.618182 46.545455-46.545454 46.545455z" fill="#31394C" p-id="9025"></path><path d="M930.909091 791.272727H325.818182c-51.2 0-93.090909-41.890909-93.090909-93.090909V93.090909c0-51.2 41.890909-93.090909 93.090909-93.090909h605.090909c51.2 0 93.090909 41.890909 93.090909 93.090909v605.090909c0 51.2-41.890909 93.090909-93.090909 93.090909zM325.818182 698.181818h605.090909V93.090909H325.818182v605.090909z" fill="#31394C" p-id="9026"></path></svg>